REM DIRINDEX 1\5,1\2\6,1\2\7,1\3\8,1\3\9,1\4\10,1\4\11,1\4\12
REM DIRNAME cjc026,folder01,folder02,folder03,folder04,folder05,folder06,folder07,folder08,folder09,folder10,folder11
TITLE ""
FILE "EJE_DB3000_5th_4B_31.mp3" MP3
  TRACK 01 AUDIO
    TITLE "0:"
    INDEX 01 00:00:00
  TRACK 02 AUDIO
    TITLE "10:cjc026_09369"
    INDEX 01 00:00:08
  TRACK 03 AUDIO
    TITLE "0:"
    INDEX 01 00:01:30
  TRACK 04 AUDIO
    TITLE "11:cjc026_09370"
    INDEX 01 00:01:65
  TRACK 05 AUDIO
    TITLE "0:"
    INDEX 01 00:03:39
  TRACK 06 AUDIO
    TITLE "12:cjc026_09371"
    INDEX 01 00:04:02
  TRACK 07 AUDIO
    TITLE "0:"
    INDEX 01 00:05:24
  TRACK 08 AUDIO
    TITLE "10:cjc026_09372"
    INDEX 01 00:05:59
  TRACK 09 AUDIO
    TITLE "0:"
    INDEX 01 00:07:06
  TRACK 10 AUDIO
    TITLE "11:cjc026_09373"
    INDEX 01 00:07:44
  TRACK 11 AUDIO
    TITLE "0:"
    INDEX 01 00:09:18
  TRACK 12 AUDIO
    TITLE "12:cjc026_09374"
    INDEX 01 00:09:56
  TRACK 13 AUDIO
    TITLE "0:"
    INDEX 01 00:11:03
  TRACK 14 AUDIO
    TITLE "10:cjc026_09375"
    INDEX 01 00:11:41
  TRACK 15 AUDIO
    TITLE "0:"
    INDEX 01 00:12:53
  TRACK 16 AUDIO
    TITLE "11:cjc026_09376"
    INDEX 01 00:13:13
  TRACK 17 AUDIO
    TITLE "0:"
    INDEX 01 00:14:35
  TRACK 18 AUDIO
    TITLE "12:cjc026_09377"
    INDEX 01 00:14:70
  TRACK 19 AUDIO
    TITLE "0:"
    INDEX 01 00:16:09
  TRACK 20 AUDIO
    TITLE "10:cjc026_09378"
    INDEX 01 00:16:44
  TRACK 21 AUDIO
    TITLE "0:"
    INDEX 01 00:18:00
  TRACK 22 AUDIO
    TITLE "11:cjc026_09379"
    INDEX 01 00:18:35
  TRACK 23 AUDIO
    TITLE "0:"
    INDEX 01 00:19:65
  TRACK 24 AUDIO
    TITLE "12:cjc026_09380"
    INDEX 01 00:20:25
  TRACK 25 AUDIO
    TITLE "0:"
    INDEX 01 00:21:55
  TRACK 26 AUDIO
    TITLE "10:cjc026_09381"
    INDEX 01 00:22:15
  TRACK 27 AUDIO
    TITLE "0:"
    INDEX 01 00:23:32
  TRACK 28 AUDIO
    TITLE "11:cjc026_09382"
    INDEX 01 00:23:70
  TRACK 29 AUDIO
    TITLE "0:"
    INDEX 01 00:25:25
  TRACK 30 AUDIO
    TITLE "12:cjc026_09383"
    INDEX 01 00:25:60
  TRACK 31 AUDIO
    TITLE "0:"
    INDEX 01 00:27:02
  TRACK 32 AUDIO
    TITLE "10:cjc026_09384"
    INDEX 01 00:27:40
  TRACK 33 AUDIO
    TITLE "0:"
    INDEX 01 00:28:60
  TRACK 34 AUDIO
    TITLE "11:cjc026_09385"
    INDEX 01 00:29:22
  TRACK 35 AUDIO
    TITLE "0:"
    INDEX 01 00:30:42
  TRACK 36 AUDIO
    TITLE "12:cjc026_09386"
    INDEX 01 00:31:05
  TRACK 37 AUDIO
    TITLE "0:"
    INDEX 01 00:32:24
  TRACK 38 AUDIO
    TITLE "10:cjc026_09387"
    INDEX 01 00:32:62
  TRACK 39 AUDIO
    TITLE "0:"
    INDEX 01 00:34:06
  TRACK 40 AUDIO
    TITLE "11:cjc026_09388"
    INDEX 01 00:34:44
  TRACK 41 AUDIO
    TITLE "0:"
    INDEX 01 00:36:05
  TRACK 42 AUDIO
    TITLE "12:cjc026_09389"
    INDEX 01 00:36:45
  TRACK 43 AUDIO
    TITLE "0:"
    INDEX 01 00:37:65
  TRACK 44 AUDIO
    TITLE "10:cjc026_09390"
    INDEX 01 00:38:25
  TRACK 45 AUDIO
    TITLE "0:"
    INDEX 01 00:39:53
  TRACK 46 AUDIO
    TITLE "11:cjc026_09391"
    INDEX 01 00:40:07
  TRACK 47 AUDIO
    TITLE "0:"
    INDEX 01 00:41:70
  TRACK 48 AUDIO
    TITLE "12:cjc026_09392"
    INDEX 01 00:42:27
  TRACK 49 AUDIO
    TITLE "0:"
    INDEX 01 00:43:52
  TRACK 50 AUDIO
    TITLE "10:cjc026_09393"
    INDEX 01 00:44:12
  TRACK 51 AUDIO
    TITLE "0:"
    INDEX 01 00:45:35
  TRACK 52 AUDIO
    TITLE "11:cjc026_09394"
    INDEX 01 00:45:72
  TRACK 53 AUDIO
    TITLE "0:"
    INDEX 01 00:47:44
  TRACK 54 AUDIO
    TITLE "12:cjc026_09395"
    INDEX 01 00:48:04
  TRACK 55 AUDIO
    TITLE "0:"
    INDEX 01 00:49:26
  TRACK 56 AUDIO
    TITLE "10:cjc026_09396"
    INDEX 01 00:49:61
  TRACK 57 AUDIO
    TITLE "0:"
    INDEX 01 00:51:14
  TRACK 58 AUDIO
    TITLE "11:cjc026_09397"
    INDEX 01 00:51:54
  TRACK 59 AUDIO
    TITLE "0:"
    INDEX 01 00:53:23
  TRACK 60 AUDIO
    TITLE "12:cjc026_09398"
    INDEX 01 00:53:61
  TRACK 61 AUDIO
    TITLE "0:"
    INDEX 01 00:55:14
  TRACK 62 AUDIO
    TITLE "10:cjc026_09399"
    INDEX 01 00:55:51
  TRACK 63 AUDIO
    TITLE "0:"
    INDEX 01 00:56:74
  TRACK 64 AUDIO
    TITLE "11:cjc026_09400"
    INDEX 01 00:57:36
  TRACK 65 AUDIO
    TITLE "0:"
    INDEX 01 00:59:05
  TRACK 66 AUDIO
    TITLE "12:cjc026_09401"
    INDEX 01 00:59:40
  TRACK 67 AUDIO
    TITLE "0:"
    INDEX 01 01:00:63
  TRACK 68 AUDIO
    TITLE "10:cjc026_09402"
    INDEX 01 01:01:28
  TRACK 69 AUDIO
    TITLE "0:"
    INDEX 01 01:02:58
  TRACK 70 AUDIO
    TITLE "11:cjc026_09403"
    INDEX 01 01:03:21
  TRACK 71 AUDIO
    TITLE "0:"
    INDEX 01 01:05:09
  TRACK 72 AUDIO
    TITLE "12:cjc026_09404"
    INDEX 01 01:05:49
  TRACK 73 AUDIO
    TITLE "0:"
    INDEX 01 01:07:05
  TRACK 74 AUDIO
    TITLE "10:cjc026_09405"
    INDEX 01 01:07:42
  TRACK 75 AUDIO
    TITLE "0:"
    INDEX 01 01:09:09
  TRACK 76 AUDIO
    TITLE "11:cjc026_09406"
    INDEX 01 01:09:44
  TRACK 77 AUDIO
    TITLE "0:"
    INDEX 01 01:11:10
  TRACK 78 AUDIO
    TITLE "12:cjc026_09407"
    INDEX 01 01:11:45
  TRACK 79 AUDIO
    TITLE "0:"
    INDEX 01 01:13:08
  TRACK 80 AUDIO
    TITLE "10:cjc026_09408"
    INDEX 01 01:13:46
  TRACK 81 AUDIO
    TITLE "0:"
    INDEX 01 01:15:07
  TRACK 82 AUDIO
    TITLE "11:cjc026_09409"
    INDEX 01 01:15:39
  TRACK 83 AUDIO
    TITLE "0:"
    INDEX 01 01:16:67
  TRACK 84 AUDIO
    TITLE "12:cjc026_09410"
    INDEX 01 01:17:24
  TRACK 85 AUDIO
    TITLE "0:"
    INDEX 01 01:18:60
